<?xml version="1.0" standalone="no"?>
<!DOCTYPE svg PUBLIC "-//W3C//DTD SVG 20010904//EN"
 "http://www.w3.org/TR/2001/REC-SVG-20010904/DTD/svg10.dtd">
<svg version="1.0" xmlns="http://www.w3.org/2000/svg"
 width="512.000000pt" height="512.000000pt" viewBox="0 0 512.000000 512.000000"
 preserveAspectRatio="xMidYMid meet">

<g transform="translate(0.000000,512.000000) scale(0.100000,-0.100000)"
fill="#000000" stroke="none">
<path d="M2540 5043 c0 -9 -7 -84 -15 -167 -14 -136 -22 -170 -77 -339 -60
-186 -61 -189 -48 -241 11 -45 10 -57 -4 -84 -14 -27 -16 -88 -16 -503 0 -403
3 -485 17 -561 l17 -88 -37 -78 -37 -77 -28 -310 -27 -310 -52 -35 c-58 -39
-60 -43 -113 -190 -21 -58 -41 -112 -45 -121 -5 -14 -32 -18 -168 -23 l-162
-8 -125 54 c-121 51 -125 54 -131 88 -4 19 -17 82 -29 140 -24 119 -23 193 10
390 11 63 26 158 34 210 9 52 36 221 61 375 25 154 50 312 56 350 6 39 17 104
24 146 11 60 12 122 4 305 -6 126 -7 243 -4 259 24 115 25 139 6 205 -10 36
-24 87 -31 113 -7 26 -16 44 -20 40 -5 -4 -44 -80 -89 -168 l-80 -160 -251
-1115 c-235 -1046 -303 -1319 -342 -1368 -6 -7 -28 -15 -49 -18 l-39 -7 0 -51
0 -51 -125 -40 c-136 -44 -133 -41 -149 -136 -4 -21 -12 -41 -19 -47 -6 -5
-56 -12 -110 -15 -113 -6 -122 -11 -157 -88 l-24 -51 -83 7 -83 7 0 -641 0
-641 2560 0 2560 0 0 659 0 658 -82 6 c-46 3 -90 8 -98 12 -12 5 -59 68 -112
149 -4 6 -52 13 -110 16 l-102 5 -42 80 c-24 44 -50 84 -58 91 -8 6 -41 16
-72 23 -38 9 -82 31 -135 67 -44 30 -84 54 -89 54 -5 0 -11 8 -14 18 -5 15
-87 410 -136 652 -11 52 -35 172 -55 265 -42 202 -98 473 -125 605 -11 52 -42
205 -70 340 -28 135 -58 280 -67 322 -12 60 -39 123 -122 288 -59 117 -112
212 -117 212 -5 0 -21 -107 -35 -237 -19 -180 -23 -253 -17 -304 21 -165 61
-436 97 -661 21 -135 51 -335 65 -445 15 -110 31 -227 36 -260 5 -33 15 -123
21 -200 l12 -140 -27 -70 c-15 -38 -41 -85 -59 -103 -17 -18 -39 -52 -48 -75
l-17 -42 -171 4 c-94 2 -195 6 -224 10 l-52 6 -21 135 c-11 74 -27 176 -34
225 -7 50 -19 124 -25 165 -13 74 -13 75 16 132 l29 58 -69 44 -69 45 -6 73
c-3 40 -10 150 -16 243 -6 94 -15 235 -20 315 -5 80 -12 186 -15 235 -3 50
-12 195 -20 323 l-15 233 -82 222 c-44 122 -98 287 -119 367 -45 175 -89 285
-89 223z"/>
</g>
</svg>
